<?xml version="1.0" encoding="utf-8"?>
<!-- Generator: Adobe Illustrator 16.0.0, SVG Export Plug-In . SVG Version: 6.00 Build 0)  -->
<!DOCTYPE svg PUBLIC "-//W3C//DTD SVG 1.1//EN" "http://www.w3.org/Graphics/SVG/1.1/DTD/svg11.dtd">
<svg version="1.1" xmlns="http://www.w3.org/2000/svg" xmlns:xlink="http://www.w3.org/1999/xlink" x="0px" y="0px"
	 width="41.233px" height="41.232px" viewBox="0 0 41.233 41.232" enable-background="new 0 0 41.233 41.232" xml:space="preserve">
<g id="Layer_2">
</g>
<g id="Layer_1">
	<g>
		<path fill="#F16E5C" d="M17.119,23.15c-2.441-0.027-4.508,1.543-4.508,3.36c0,1.857,1.761,3.399,4.202,3.399
			c3.431,0,4.626-1.449,4.626-3.304c0-0.225-0.027-0.443-0.078-0.654c-0.27-1.052-1.336-1.625-2.662-2.548
			C18.217,23.248,17.688,23.155,17.119,23.15z"/>
		<path fill="#F16E5C" d="M0,0v41.232h41.233V0H0z M22.193,15.17c0,1.343-0.746,2.426-1.795,3.249
			c-1.027,0.801-1.221,1.138-1.221,1.816c0,0.582,1.225,1.45,1.787,1.873c1.963,1.47,2.36,2.396,2.36,4.239
			c0,2.294-2.474,4.579-6.498,4.579c-3.531,0-6.512-1.437-6.512-3.732c0-2.332,2.474-4.762,6.002-4.762
			c0.386,0,0.739-0.01,1.103-0.01c-0.482-0.471-0.873-0.875-0.873-1.585c0-0.42,0.135-0.823,0.322-1.186
			c-0.191,0.015-0.389,0.025-0.59,0.025c-2.898,0-4.589-2.036-4.589-4.593c0-2.501,2.57-4.774,5.654-4.774c1.591,0,6.079,0,6.079,0
			l-1.359,1.425h-1.596C21.595,12.38,22.193,13.707,22.193,15.17z M30.918,14.795h-2.805v2.803h-1.402v-2.803h-2.802v-1.401h2.802
			v-2.804h1.402v2.804h2.805V14.795z"/>
		<path fill="#F16E5C" d="M16.431,11.297c-1.638-0.047-2.737,1.598-2.454,3.75c0.282,2.149,1.84,3.651,3.479,3.702
			c1.637,0.047,2.578-1.336,2.297-3.485C19.471,13.111,18.066,11.347,16.431,11.297z"/>
	</g>
</g>
<g id="Layer_4">
</g>
</svg>
