<?xml version="1.0" encoding="utf-8"?>
<!-- Generator: Adobe Illustrator 16.0.0, SVG Export Plug-In . SVG Version: 6.00 Build 0)  -->
<!DOCTYPE svg PUBLIC "-//W3C//DTD SVG 1.1//EN" "http://www.w3.org/Graphics/SVG/1.1/DTD/svg11.dtd">
<svg version="1.1" xmlns="http://www.w3.org/2000/svg" xmlns:xlink="http://www.w3.org/1999/xlink" x="0px" y="0px"
	 width="157.211px" height="26.473px" viewBox="0 0 157.211 26.473" enable-background="new 0 0 157.211 26.473"
	 xml:space="preserve">
<g id="Layer_2">
</g>
<g id="Layer_1">
</g>
<g id="Website_2_">
	<rect x="113.512" y="1.365" fill="#FFFFFF" width="42.334" height="23.742"/>
	<g>
		<rect fill="#505B5B" width="112.832" height="26.473"/>
		<path fill="#505B5B" d="M149.818,5.23h-18.289l-1.938,1.953v6.5c0.266,0.074,0.535,0.182,0.801,0.32
			c0.379,0.203,0.744,0.441,1.08,0.707V8.393l4.988,4.85l-3.199,3.109c0.186,0.225,0.324,0.447,0.43,0.631
			c0.221,0.383,0.354,0.787,0.398,1.187l3.723-3.614l2.869,2.793l2.871-2.793l4.949,4.809h-14.525
			c-0.143,0.434-0.391,0.838-0.744,1.182l-0.076,0.076c-0.205,0.201-0.42,0.412-0.652,0.623h17.307l0.309-0.309l0.018,0.018
			l0.928-0.955l0.709-0.705V7.184L149.818,5.23z M140.682,14.723l-7.805-7.594h15.611L140.682,14.723z M149.891,18.086l-4.988-4.844
			l4.988-4.85V18.086z"/>
		<path fill-rule="evenodd" clip-rule="evenodd" fill="#5AC097" d="M131.906,19.191c-0.406,0.4-0.814,0.807-1.283,1.143
			c-0.115,0.078-0.23,0.156-0.357,0.229c-0.783,0.459-1.629,0.684-2.537,0.68c-1.117,0-2.139-0.326-3.105-0.842
			c-1.168-0.621-2.17-1.455-3.09-2.391c-1.068-1.086-2.035-2.254-2.83-3.558c-0.65-1.073-1.154-2.2-1.342-3.45
			c-0.039-0.26-0.061-0.523-0.09-0.785V9.932c0.043-0.33,0.066-0.662,0.133-0.986c0.23-1.125,0.795-2.051,1.674-2.789
			c0.25-0.207,0.488-0.421,0.74-0.623c0.541-0.434,1.076-0.398,1.578,0.082c0.533,0.514,0.885,1.158,1.268,1.777
			c0.242,0.385,0.443,0.793,0.521,1.248c0.096,0.537-0.041,1.004-0.436,1.375c-0.301,0.281-0.609,0.561-0.949,0.795
			c-0.672,0.465-0.766,1.049-0.506,1.779c0.232,0.656,0.625,1.221,1.051,1.764c0.576,0.729,1.189,1.424,1.912,2.01
			c0.393,0.316,0.807,0.602,1.312,0.715c0.443,0.104,0.818-0.02,1.146-0.334c0.322-0.305,0.643-0.613,0.98-0.902
			c0.559-0.473,1.176-0.498,1.803-0.164c0.031,0.016,0.062,0.033,0.092,0.051c0.289,0.158,0.564,0.348,0.814,0.557
			c0.367,0.303,0.721,0.625,1.066,0.953c0.078,0.07,0.152,0.143,0.227,0.215c0.072,0.068,0.137,0.146,0.193,0.229
			c0.057,0.076,0.107,0.16,0.156,0.244C132.309,18.379,132.281,18.828,131.906,19.191"/>
		<path fill="#505B5B" d="M155.846,25.107h-42.334V1.365h42.334V25.107z M157.211,0h-45.064v26.473h45.064V0z"/>
		<g>
			<path fill="#FFFFFF" d="M14.73,7.22c1.616,0,2.785,0.544,3.874,1.489c0.144,0.128,0.144,0.32,0.016,0.448l-0.704,0.721
				c-0.112,0.144-0.256,0.144-0.4,0c-0.752-0.656-1.776-1.073-2.769-1.073c-2.289,0-4.018,1.921-4.018,4.162
				c0,2.241,1.745,4.146,4.034,4.146c1.168,0,1.985-0.464,2.753-1.057c0.145-0.112,0.289-0.096,0.384-0.016l0.736,0.721
				c0.128,0.112,0.096,0.32-0.016,0.432c-1.088,1.056-2.465,1.552-3.889,1.552c-3.202,0-5.779-2.545-5.779-5.746
				S11.529,7.22,14.73,7.22z"/>
			<path fill="#FFFFFF" d="M25.626,7.22c3.201,0,5.762,2.577,5.762,5.778s-2.561,5.746-5.762,5.746s-5.746-2.545-5.746-5.746
				S22.425,7.22,25.626,7.22z M25.626,17.192c2.289,0,4.162-1.905,4.162-4.194c0-2.273-1.873-4.226-4.162-4.226
				c-2.273,0-4.146,1.953-4.146,4.226C21.481,15.287,23.354,17.192,25.626,17.192z"/>
			<path fill="#FFFFFF" d="M33.608,7.508c0-0.16,0.144-0.288,0.304-0.288h0.128c0.16,0,0.272,0,0.48,0.24l6.723,7.795h0.032V7.684
				c0-0.16,0.128-0.304,0.304-0.304h1.024c0.16,0,0.304,0.144,0.304,0.304v10.772c0,0.16-0.144,0.288-0.304,0.288h-0.144
				c-0.16,0-0.272,0-0.464-0.224l-6.738-8.036h-0.032v7.795c0,0.16-0.128,0.304-0.304,0.304h-1.008c-0.16,0-0.304-0.144-0.304-0.304
				V7.508z"/>
			<path fill="#FFFFFF" d="M47.688,8.884h-2.609c-0.176,0-0.304-0.144-0.304-0.304V7.684c0-0.16,0.128-0.304,0.304-0.304h6.883
				c0.176,0,0.304,0.144,0.304,0.304V8.58c0,0.16-0.128,0.304-0.304,0.304h-2.609v9.396c0,0.16-0.144,0.304-0.304,0.304h-1.057
				c-0.16,0-0.304-0.144-0.304-0.304V8.884z"/>
			<path fill="#FFFFFF" d="M52.087,18.168l4.914-10.772C57.049,7.3,57.193,7.22,57.273,7.22h0.16c0.08,0,0.224,0.08,0.272,0.176
				l4.882,10.772c0.096,0.208-0.032,0.417-0.272,0.417h-1.008c-0.192,0-0.304-0.096-0.368-0.24l-0.992-2.193h-5.234l-0.977,2.193
				c-0.048,0.112-0.176,0.24-0.368,0.24h-1.008C52.119,18.584,51.991,18.376,52.087,18.168z M59.338,14.775l-1.969-4.386h-0.08
				l-1.953,4.386H59.338z"/>
			<path fill="#FFFFFF" d="M69.002,7.22c1.616,0,2.785,0.544,3.874,1.489c0.144,0.128,0.144,0.32,0.016,0.448l-0.704,0.721
				c-0.112,0.144-0.256,0.144-0.4,0c-0.752-0.656-1.776-1.073-2.769-1.073c-2.289,0-4.018,1.921-4.018,4.162
				c0,2.241,1.745,4.146,4.034,4.146c1.168,0,1.985-0.464,2.753-1.057c0.145-0.112,0.289-0.096,0.384-0.016l0.736,0.721
				c0.128,0.112,0.096,0.32-0.016,0.432c-1.088,1.056-2.465,1.552-3.889,1.552c-3.202,0-5.779-2.545-5.779-5.746
				S65.8,7.22,69.002,7.22z"/>
			<path fill="#FFFFFF" d="M76.953,8.884h-2.609c-0.176,0-0.304-0.144-0.304-0.304V7.684c0-0.16,0.128-0.304,0.304-0.304h6.883
				c0.176,0,0.304,0.144,0.304,0.304V8.58c0,0.16-0.128,0.304-0.304,0.304h-2.609v9.396c0,0.16-0.144,0.304-0.304,0.304h-1.057
				c-0.16,0-0.304-0.144-0.304-0.304V8.884z"/>
			<path fill="#FFFFFF" d="M87.127,7.684c0-0.16,0.144-0.304,0.304-0.304h1.073c0.176,0,0.304,0.144,0.304,0.304v6.739
				c0,1.601,1.024,2.721,2.657,2.721c1.649,0,2.689-1.104,2.689-2.689V7.684c0-0.16,0.128-0.304,0.304-0.304h1.073
				c0.16,0,0.304,0.144,0.304,0.304v6.851c0,2.433-1.841,4.209-4.37,4.209c-2.513,0-4.337-1.776-4.337-4.209V7.684z"/>
			<path fill="#FFFFFF" d="M98.022,16.968l0.417-0.656c0.128-0.208,0.368-0.272,0.544-0.128c0.752,0.624,1.329,1.104,2.561,1.104
				c1.104,0,1.809-0.672,1.809-1.488c0-0.96-0.833-1.569-2.417-2.225c-1.633-0.688-2.914-1.537-2.914-3.394
				c0-1.248,0.96-2.961,3.505-2.961c1.601,0,2.801,0.833,2.961,0.944c0.128,0.08,0.256,0.304,0.096,0.544l-0.4,0.608
				c-0.128,0.208-0.336,0.304-0.56,0.16c-0.625-0.4-1.232-0.8-2.161-0.8c-1.344,0-1.809,0.848-1.809,1.44
				c0,0.913,0.704,1.473,2.033,2.017c1.857,0.752,3.441,1.633,3.441,3.585c0,1.665-1.488,3.025-3.569,3.025
				c-1.953,0-3.185-1.024-3.441-1.264C97.975,17.352,97.847,17.24,98.022,16.968z"/>
		</g>
	</g>
</g>
<g id="Layer_5">
</g>
<g id="Layer_4_2_">
</g>
<g id="Layer_7">
</g>
<g id="Layer_6">
</g>
</svg>
