<?xml version="1.0" encoding="utf-8"?>
<!-- Generator: Adobe Illustrator 16.0.0, SVG Export Plug-In . SVG Version: 6.00 Build 0)  -->
<!DOCTYPE svg PUBLIC "-//W3C//DTD SVG 1.1//EN" "http://www.w3.org/Graphics/SVG/1.1/DTD/svg11.dtd">
<svg version="1.1" xmlns="http://www.w3.org/2000/svg" xmlns:xlink="http://www.w3.org/1999/xlink" x="0px" y="0px"
	 width="41.236px" height="41.237px" viewBox="0 0 41.236 41.237" enable-background="new 0 0 41.236 41.237" xml:space="preserve">
<g id="Layer_2">
</g>
<g id="Layer_1">
	<path fill="#16A4A5" d="M0,0v41.237h41.236V0H0z M28.816,16.415c0.01,0.181,0.014,0.363,0.014,0.546
		c0,5.59-4.255,12.036-12.036,12.036c-2.39,0-4.612-0.699-6.484-1.9c0.332,0.04,0.668,0.058,1.009,0.058
		c1.984,0,3.806-0.675,5.252-1.81c-1.85-0.033-3.412-1.256-3.949-2.937c0.258,0.05,0.522,0.075,0.796,0.075
		c0.386,0,0.761-0.051,1.113-0.148c-1.933-0.388-3.394-2.099-3.394-4.148c0-0.018,0-0.035,0-0.053
		c0.572,0.317,1.224,0.508,1.918,0.528c-1.137-0.757-1.883-2.054-1.883-3.521c0-0.775,0.21-1.5,0.573-2.126
		c2.086,2.56,5.204,4.243,8.719,4.419c-0.071-0.31-0.11-0.631-0.11-0.963c0-2.336,1.896-4.229,4.232-4.229
		c1.217,0,2.314,0.513,3.086,1.334c0.965-0.189,1.869-0.541,2.688-1.024c-0.317,0.986-0.986,1.817-1.86,2.338
		c0.856-0.101,1.671-0.328,2.43-0.665C30.362,15.074,29.645,15.819,28.816,16.415z"/>
</g>
<g id="Layer_4">
</g>
</svg>
